<mxfile host="app.diagrams.net" agent="Mozilla/5.0 (X11; Linux x86_64) AppleWebKit/537.36 (KHTML, like Gecko) Chrome/131.0.0.0 Safari/537.36" version="26.2.14">
  <diagram name="Page-1" id="twBjKmcLGljWWWPvNV_Y">
    <mxGraphModel dx="1281" dy="578" grid="1" gridSize="10" guides="1" tooltips="1" connect="1" arrows="1" fold="1" page="1" pageScale="1" pageWidth="850" pageHeight="1100" math="0" shadow="0">
      <root>
        <mxCell id="0" />
        <mxCell id="1" parent="0" />
        <mxCell id="glccJ57vJ7IMxxE1V555-12" value="Mapper" style="swimlane;fontStyle=1;align=center;verticalAlign=top;childLayout=stackLayout;horizontal=1;startSize=26;horizontalStack=0;resizeParent=1;resizeParentMax=0;resizeLast=0;collapsible=1;marginBottom=0;whiteSpace=wrap;html=1;" vertex="1" parent="1">
          <mxGeometry x="160" y="200" width="160" height="150" as="geometry" />
        </mxCell>
        <mxCell id="glccJ57vJ7IMxxE1V555-13" value="Neo4j graph instance&lt;br&gt;Ontology object" style="text;strokeColor=none;fillColor=none;align=left;verticalAlign=top;spacingLeft=4;spacingRight=4;overflow=hidden;rotatable=0;points=[[0,0.5],[1,0.5]];portConstraint=eastwest;whiteSpace=wrap;html=1;" vertex="1" parent="glccJ57vJ7IMxxE1V555-12">
          <mxGeometry y="26" width="160" height="44" as="geometry" />
        </mxCell>
        <mxCell id="glccJ57vJ7IMxxE1V555-14" value="" style="line;strokeWidth=1;fillColor=none;align=left;verticalAlign=middle;spacingTop=-1;spacingLeft=3;spacingRight=3;rotatable=0;labelPosition=right;points=[];portConstraint=eastwest;strokeColor=inherit;" vertex="1" parent="glccJ57vJ7IMxxE1V555-12">
          <mxGeometry y="70" width="160" height="8" as="geometry" />
        </mxCell>
        <mxCell id="glccJ57vJ7IMxxE1V555-15" value="+process_classes()&lt;div&gt;+process_subclasses()&lt;br&gt;+process_individuals()&lt;br&gt;&lt;/div&gt;&lt;div&gt;+process_equivalents()&lt;/div&gt;" style="text;strokeColor=none;fillColor=none;align=left;verticalAlign=top;spacingLeft=4;spacingRight=4;overflow=hidden;rotatable=0;points=[[0,0.5],[1,0.5]];portConstraint=eastwest;whiteSpace=wrap;html=1;" vertex="1" parent="glccJ57vJ7IMxxE1V555-12">
          <mxGeometry y="78" width="160" height="72" as="geometry" />
        </mxCell>
        <mxCell id="glccJ57vJ7IMxxE1V555-16" value="Connector" style="swimlane;fontStyle=1;align=center;verticalAlign=top;childLayout=stackLayout;horizontal=1;startSize=26;horizontalStack=0;resizeParent=1;resizeParentMax=0;resizeLast=0;collapsible=1;marginBottom=0;whiteSpace=wrap;html=1;" vertex="1" parent="1">
          <mxGeometry x="160" y="400" width="160" height="110" as="geometry" />
        </mxCell>
        <mxCell id="glccJ57vJ7IMxxE1V555-17" value="Username&lt;div&gt;Password&lt;/div&gt;" style="text;strokeColor=none;fillColor=none;align=left;verticalAlign=top;spacingLeft=4;spacingRight=4;overflow=hidden;rotatable=0;points=[[0,0.5],[1,0.5]];portConstraint=eastwest;whiteSpace=wrap;html=1;" vertex="1" parent="glccJ57vJ7IMxxE1V555-16">
          <mxGeometry y="26" width="160" height="34" as="geometry" />
        </mxCell>
        <mxCell id="glccJ57vJ7IMxxE1V555-18" value="" style="line;strokeWidth=1;fillColor=none;align=left;verticalAlign=middle;spacingTop=-1;spacingLeft=3;spacingRight=3;rotatable=0;labelPosition=right;points=[];portConstraint=eastwest;strokeColor=inherit;" vertex="1" parent="glccJ57vJ7IMxxE1V555-16">
          <mxGeometry y="60" width="160" height="8" as="geometry" />
        </mxCell>
        <mxCell id="glccJ57vJ7IMxxE1V555-19" value="+connect()&lt;br&gt;+closeconnection()" style="text;strokeColor=none;fillColor=none;align=left;verticalAlign=top;spacingLeft=4;spacingRight=4;overflow=hidden;rotatable=0;points=[[0,0.5],[1,0.5]];portConstraint=eastwest;whiteSpace=wrap;html=1;" vertex="1" parent="glccJ57vJ7IMxxE1V555-16">
          <mxGeometry y="68" width="160" height="42" as="geometry" />
        </mxCell>
        <mxCell id="glccJ57vJ7IMxxE1V555-20" value="OWLHelper" style="swimlane;fontStyle=1;align=center;verticalAlign=top;childLayout=stackLayout;horizontal=1;startSize=26;horizontalStack=0;resizeParent=1;resizeParentMax=0;resizeLast=0;collapsible=1;marginBottom=0;whiteSpace=wrap;html=1;" vertex="1" parent="1">
          <mxGeometry x="160" y="40" width="160" height="110" as="geometry" />
        </mxCell>
        <mxCell id="glccJ57vJ7IMxxE1V555-21" value="filename&lt;div&gt;format&lt;/div&gt;" style="text;strokeColor=none;fillColor=none;align=left;verticalAlign=top;spacingLeft=4;spacingRight=4;overflow=hidden;rotatable=0;points=[[0,0.5],[1,0.5]];portConstraint=eastwest;whiteSpace=wrap;html=1;" vertex="1" parent="glccJ57vJ7IMxxE1V555-20">
          <mxGeometry y="26" width="160" height="34" as="geometry" />
        </mxCell>
        <mxCell id="glccJ57vJ7IMxxE1V555-22" value="" style="line;strokeWidth=1;fillColor=none;align=left;verticalAlign=middle;spacingTop=-1;spacingLeft=3;spacingRight=3;rotatable=0;labelPosition=right;points=[];portConstraint=eastwest;strokeColor=inherit;" vertex="1" parent="glccJ57vJ7IMxxE1V555-20">
          <mxGeometry y="60" width="160" height="8" as="geometry" />
        </mxCell>
        <mxCell id="glccJ57vJ7IMxxE1V555-23" value="+load_owl_ontology()&lt;br&gt;+extract_name()" style="text;strokeColor=none;fillColor=none;align=left;verticalAlign=top;spacingLeft=4;spacingRight=4;overflow=hidden;rotatable=0;points=[[0,0.5],[1,0.5]];portConstraint=eastwest;whiteSpace=wrap;html=1;" vertex="1" parent="glccJ57vJ7IMxxE1V555-20">
          <mxGeometry y="68" width="160" height="42" as="geometry" />
        </mxCell>
        <mxCell id="glccJ57vJ7IMxxE1V555-27" value="" style="endArrow=diamondThin;endFill=0;endSize=24;html=1;rounded=0;exitX=0.5;exitY=0;exitDx=0;exitDy=0;" edge="1" parent="1" source="glccJ57vJ7IMxxE1V555-16" target="glccJ57vJ7IMxxE1V555-15">
          <mxGeometry width="160" relative="1" as="geometry">
            <mxPoint x="350" y="300" as="sourcePoint" />
            <mxPoint x="510" y="300" as="targetPoint" />
          </mxGeometry>
        </mxCell>
        <mxCell id="glccJ57vJ7IMxxE1V555-28" value="" style="endArrow=diamondThin;endFill=0;endSize=24;html=1;rounded=0;" edge="1" parent="1" source="glccJ57vJ7IMxxE1V555-20" target="glccJ57vJ7IMxxE1V555-12">
          <mxGeometry width="160" relative="1" as="geometry">
            <mxPoint x="350" y="300" as="sourcePoint" />
            <mxPoint x="510" y="300" as="targetPoint" />
          </mxGeometry>
        </mxCell>
        <mxCell id="glccJ57vJ7IMxxE1V555-33" value="GraphMetaData" style="swimlane;fontStyle=1;align=center;verticalAlign=top;childLayout=stackLayout;horizontal=1;startSize=26;horizontalStack=0;resizeParent=1;resizeParentMax=0;resizeLast=0;collapsible=1;marginBottom=0;whiteSpace=wrap;html=1;" vertex="1" parent="1">
          <mxGeometry x="380" y="215" width="160" height="120" as="geometry" />
        </mxCell>
        <mxCell id="glccJ57vJ7IMxxE1V555-34" value="neo4j graph" style="text;strokeColor=none;fillColor=none;align=left;verticalAlign=top;spacingLeft=4;spacingRight=4;overflow=hidden;rotatable=0;points=[[0,0.5],[1,0.5]];portConstraint=eastwest;whiteSpace=wrap;html=1;" vertex="1" parent="glccJ57vJ7IMxxE1V555-33">
          <mxGeometry y="26" width="160" height="34" as="geometry" />
        </mxCell>
        <mxCell id="glccJ57vJ7IMxxE1V555-35" value="" style="line;strokeWidth=1;fillColor=none;align=left;verticalAlign=middle;spacingTop=-1;spacingLeft=3;spacingRight=3;rotatable=0;labelPosition=right;points=[];portConstraint=eastwest;strokeColor=inherit;" vertex="1" parent="glccJ57vJ7IMxxE1V555-33">
          <mxGeometry y="60" width="160" height="8" as="geometry" />
        </mxCell>
        <mxCell id="glccJ57vJ7IMxxE1V555-36" value="+add_inverse()&lt;br&gt;+add_transitive()&lt;div&gt;+add_subprops()&lt;/div&gt;" style="text;strokeColor=none;fillColor=none;align=left;verticalAlign=top;spacingLeft=4;spacingRight=4;overflow=hidden;rotatable=0;points=[[0,0.5],[1,0.5]];portConstraint=eastwest;whiteSpace=wrap;html=1;" vertex="1" parent="glccJ57vJ7IMxxE1V555-33">
          <mxGeometry y="68" width="160" height="52" as="geometry" />
        </mxCell>
        <mxCell id="glccJ57vJ7IMxxE1V555-37" value="GraphReasoner" style="swimlane;fontStyle=1;align=center;verticalAlign=top;childLayout=stackLayout;horizontal=1;startSize=26;horizontalStack=0;resizeParent=1;resizeParentMax=0;resizeLast=0;collapsible=1;marginBottom=0;whiteSpace=wrap;html=1;" vertex="1" parent="1">
          <mxGeometry x="580" y="215" width="160" height="120" as="geometry" />
        </mxCell>
        <mxCell id="glccJ57vJ7IMxxE1V555-38" value="neo4j graph" style="text;strokeColor=none;fillColor=none;align=left;verticalAlign=top;spacingLeft=4;spacingRight=4;overflow=hidden;rotatable=0;points=[[0,0.5],[1,0.5]];portConstraint=eastwest;whiteSpace=wrap;html=1;" vertex="1" parent="glccJ57vJ7IMxxE1V555-37">
          <mxGeometry y="26" width="160" height="34" as="geometry" />
        </mxCell>
        <mxCell id="glccJ57vJ7IMxxE1V555-39" value="" style="line;strokeWidth=1;fillColor=none;align=left;verticalAlign=middle;spacingTop=-1;spacingLeft=3;spacingRight=3;rotatable=0;labelPosition=right;points=[];portConstraint=eastwest;strokeColor=inherit;" vertex="1" parent="glccJ57vJ7IMxxE1V555-37">
          <mxGeometry y="60" width="160" height="8" as="geometry" />
        </mxCell>
        <mxCell id="glccJ57vJ7IMxxE1V555-40" value="+add_inferred_inverse()&lt;br&gt;+add_inferred_transitive()&lt;div&gt;+add_inferred_subprops()&lt;/div&gt;" style="text;strokeColor=none;fillColor=none;align=left;verticalAlign=top;spacingLeft=4;spacingRight=4;overflow=hidden;rotatable=0;points=[[0,0.5],[1,0.5]];portConstraint=eastwest;whiteSpace=wrap;html=1;" vertex="1" parent="glccJ57vJ7IMxxE1V555-37">
          <mxGeometry y="68" width="160" height="52" as="geometry" />
        </mxCell>
        <mxCell id="glccJ57vJ7IMxxE1V555-47" style="edgeStyle=orthogonalEdgeStyle;rounded=0;orthogonalLoop=1;jettySize=auto;html=1;" edge="1" parent="1" source="glccJ57vJ7IMxxE1V555-41" target="glccJ57vJ7IMxxE1V555-46">
          <mxGeometry relative="1" as="geometry">
            <Array as="points">
              <mxPoint x="307" y="712" />
              <mxPoint x="307" y="712" />
            </Array>
          </mxGeometry>
        </mxCell>
        <mxCell id="glccJ57vJ7IMxxE1V555-50" value="Persist Ontology metadata in&amp;nbsp;&lt;div&gt;the same graph instance&lt;div&gt;&lt;br&gt;&lt;/div&gt;&lt;/div&gt;" style="edgeLabel;html=1;align=center;verticalAlign=middle;resizable=0;points=[];" vertex="1" connectable="0" parent="glccJ57vJ7IMxxE1V555-47">
          <mxGeometry x="0.036" relative="1" as="geometry">
            <mxPoint x="-5" y="30" as="offset" />
          </mxGeometry>
        </mxCell>
        <mxCell id="glccJ57vJ7IMxxE1V555-41" value="Mapper" style="rounded=1;whiteSpace=wrap;html=1;" vertex="1" parent="1">
          <mxGeometry x="127" y="682" width="120" height="60" as="geometry" />
        </mxCell>
        <mxCell id="glccJ57vJ7IMxxE1V555-45" style="edgeStyle=orthogonalEdgeStyle;rounded=0;orthogonalLoop=1;jettySize=auto;html=1;" edge="1" parent="1" source="glccJ57vJ7IMxxE1V555-42" target="glccJ57vJ7IMxxE1V555-41">
          <mxGeometry relative="1" as="geometry" />
        </mxCell>
        <mxCell id="glccJ57vJ7IMxxE1V555-42" value="Connector" style="rounded=1;whiteSpace=wrap;html=1;" vertex="1" parent="1">
          <mxGeometry x="127" y="772" width="120" height="60" as="geometry" />
        </mxCell>
        <mxCell id="glccJ57vJ7IMxxE1V555-44" style="edgeStyle=orthogonalEdgeStyle;rounded=0;orthogonalLoop=1;jettySize=auto;html=1;" edge="1" parent="1" source="glccJ57vJ7IMxxE1V555-43" target="glccJ57vJ7IMxxE1V555-41">
          <mxGeometry relative="1" as="geometry" />
        </mxCell>
        <mxCell id="glccJ57vJ7IMxxE1V555-43" value="OWLHelper" style="rounded=1;whiteSpace=wrap;html=1;" vertex="1" parent="1">
          <mxGeometry x="127" y="602" width="120" height="50" as="geometry" />
        </mxCell>
        <mxCell id="glccJ57vJ7IMxxE1V555-55" style="edgeStyle=orthogonalEdgeStyle;rounded=0;orthogonalLoop=1;jettySize=auto;html=1;entryX=0;entryY=0.5;entryDx=0;entryDy=0;" edge="1" parent="1" source="glccJ57vJ7IMxxE1V555-46" target="glccJ57vJ7IMxxE1V555-54">
          <mxGeometry relative="1" as="geometry" />
        </mxCell>
        <mxCell id="glccJ57vJ7IMxxE1V555-46" value="Add&amp;nbsp;&lt;div&gt;GraphMetaData&lt;/div&gt;" style="rounded=1;whiteSpace=wrap;html=1;" vertex="1" parent="1">
          <mxGeometry x="442" y="682" width="113" height="60" as="geometry" />
        </mxCell>
        <mxCell id="glccJ57vJ7IMxxE1V555-60" style="edgeStyle=orthogonalEdgeStyle;rounded=0;orthogonalLoop=1;jettySize=auto;html=1;" edge="1" parent="1" source="glccJ57vJ7IMxxE1V555-54">
          <mxGeometry relative="1" as="geometry">
            <mxPoint x="761.5" y="790" as="targetPoint" />
          </mxGeometry>
        </mxCell>
        <mxCell id="glccJ57vJ7IMxxE1V555-54" value="GraphReasoner" style="rounded=1;whiteSpace=wrap;html=1;" vertex="1" parent="1">
          <mxGeometry x="705" y="682" width="113" height="60" as="geometry" />
        </mxCell>
        <mxCell id="glccJ57vJ7IMxxE1V555-56" value="Perform reasoning" style="text;html=1;align=center;verticalAlign=middle;resizable=0;points=[];autosize=1;strokeColor=none;fillColor=none;" vertex="1" parent="1">
          <mxGeometry x="565" y="712" width="120" height="30" as="geometry" />
        </mxCell>
        <mxCell id="glccJ57vJ7IMxxE1V555-59" style="edgeStyle=orthogonalEdgeStyle;rounded=0;orthogonalLoop=1;jettySize=auto;html=1;" edge="1" parent="1" source="glccJ57vJ7IMxxE1V555-58" target="glccJ57vJ7IMxxE1V555-41">
          <mxGeometry relative="1" as="geometry" />
        </mxCell>
        <mxCell id="glccJ57vJ7IMxxE1V555-58" value="Input OWL file" style="text;html=1;align=center;verticalAlign=middle;whiteSpace=wrap;rounded=0;" vertex="1" parent="1">
          <mxGeometry x="10" y="697" width="85" height="30" as="geometry" />
        </mxCell>
        <mxCell id="glccJ57vJ7IMxxE1V555-61" value="Persistent LPG graph&amp;nbsp;&lt;div&gt;with new inferences&lt;/div&gt;" style="text;html=1;align=center;verticalAlign=middle;resizable=0;points=[];autosize=1;strokeColor=none;fillColor=none;" vertex="1" parent="1">
          <mxGeometry x="691.5" y="803" width="140" height="40" as="geometry" />
        </mxCell>
      </root>
    </mxGraphModel>
  </diagram>
</mxfile>
